<svg width="35" height="35" viewBox="0 0 35 35" fill="none" xmlns="http://www.w3.org/2000/svg">
<g clip-path="url(#clip0_102_4458)">
<path d="M17.5 2.91666C9.45002 2.91666 2.91669 9.44999 2.91669 17.5C2.91669 25.55 9.45002 32.0833 17.5 32.0833C25.55 32.0833 32.0834 25.55 32.0834 17.5C32.0834 9.44999 25.55 2.91666 17.5 2.91666ZM17.5 7.29166C19.9209 7.29166 21.875 9.24582 21.875 11.6667C21.875 14.0875 19.9209 16.0417 17.5 16.0417C15.0792 16.0417 13.125 14.0875 13.125 11.6667C13.125 9.24582 15.0792 7.29166 17.5 7.29166ZM17.5 28C13.8542 28 10.6313 26.1333 8.75002 23.3042C8.79377 20.4021 14.5834 18.8125 17.5 18.8125C20.4021 18.8125 26.2063 20.4021 26.25 23.3042C24.3688 26.1333 21.1459 28 17.5 28Z" fill="#667080"/>
</g>
<defs>
<clipPath id="clip0_102_4458">
<rect width="35" height="35" fill="white"/>
</clipPath>
</defs>
</svg>
